<?xml version="1.0" encoding="utf-8"?>
<!-- Generator: Adobe Illustrator 24.1.2, SVG Export Plug-In . SVG Version: 6.00 Build 0)  -->
<svg version="1.1" id="Layer_1" xmlns="http://www.w3.org/2000/svg" xmlns:xlink="http://www.w3.org/1999/xlink" x="0px" y="0px"
	 viewBox="0 0 1024 768" style="enable-background:new 0 0 1024 768;" xml:space="preserve">
<style type="text/css">
	.st0{clip-path:url(#SVGID_2_);fill:#1B2F5A;}
	.st1{clip-path:url(#SVGID_4_);}
	.st2{fill:#1B2F5A;}
	.st3{clip-path:url(#SVGID_6_);fill:#1B2F5A;}
	.st4{clip-path:url(#SVGID_8_);}
	.st5{fill:#F2BF38;}
	.st6{clip-path:url(#SVGID_10_);}
	.st7{fill:#FAE053;}
	.st8{fill:#FFFFFF;}
	.st9{fill:none;stroke:#1B2E5A;stroke-width:16.5;stroke-miterlimit:10;}
	.st10{fill:#1B2E5A;}
	.st11{fill:none;stroke:#FFFFFF;stroke-width:32.9998;stroke-linecap:round;stroke-linejoin:round;}
	.st12{fill:none;stroke:#1B2E5A;stroke-width:16.5;stroke-linecap:round;stroke-linejoin:round;}
	.st13{fill:#1B2E5A;stroke:#1B2E5A;stroke-width:11;stroke-miterlimit:10;}
	.st14{clip-path:url(#SVGID_12_);fill:#1B2F5A;}
	.st15{clip-path:url(#SVGID_14_);}
</style>
<g>
	<g>
		<g>
			<defs>
				<rect id="SVGID_1_" x="367" y="452" width="320" height="300"/>
			</defs>
			<clipPath id="SVGID_2_">
				<use xlink:href="#SVGID_1_"  style="overflow:visible;"/>
			</clipPath>
			<path class="st0" d="M597.6,704.1L526.9,656l-70.7,48.2l27-78L412.5,578h87.4l27-78l27,78h87.4l-70.7,48.2L597.6,704.1z"/>
		</g>
		<g>
			<defs>
				<rect id="SVGID_3_" x="367" y="452" width="320" height="300"/>
			</defs>
			<clipPath id="SVGID_4_">
				<use xlink:href="#SVGID_3_"  style="overflow:visible;"/>
			</clipPath>
			<g id="XMLID_2_" class="st1">
				<g>
					<polygon class="st2" points="602,590 555.6,621.6 573.3,672.7 526.9,641.1 480.5,672.7 498.3,621.6 451.9,590 509.2,590 
						526.9,538.9 544.6,590 					"/>
				</g>
			</g>
		</g>
	</g>
</g>
<g>
	<g>
		<g>
			<defs>
				<rect id="SVGID_5_" x="617" y="452" width="320" height="300"/>
			</defs>
			<clipPath id="SVGID_6_">
				<use xlink:href="#SVGID_5_"  style="overflow:visible;"/>
			</clipPath>
			<path class="st3" d="M847.6,704.1L776.9,656l-70.7,48.2l27-78L662.5,578h87.4l27-78l27,78h87.4l-70.7,48.2L847.6,704.1z"/>
		</g>
		<g>
			<defs>
				<rect id="SVGID_7_" x="617" y="452" width="320" height="300"/>
			</defs>
			<clipPath id="SVGID_8_">
				<use xlink:href="#SVGID_7_"  style="overflow:visible;"/>
			</clipPath>
			<g id="XMLID_3_" class="st4">
				<g>
					<polygon class="st2" points="852,590 805.6,621.6 823.3,672.7 776.9,641.1 730.5,672.7 748.3,621.6 701.9,590 759.2,590 
						776.9,538.9 794.6,590 					"/>
				</g>
			</g>
		</g>
	</g>
</g>
<g>
	<circle class="st5" cx="526.7" cy="245.4" r="209.3"/>
	<g>
		<g>
			<defs>
				<circle id="SVGID_9_" cx="526.7" cy="245.4" r="209.3"/>
			</defs>
			<clipPath id="SVGID_10_">
				<use xlink:href="#SVGID_9_"  style="overflow:visible;"/>
			</clipPath>
			<g class="st6">
				<circle class="st7" cx="486.9" cy="205.7" r="228.9"/>
				<path class="st8" d="M311.9,239.4C311.6,124,404.8,30.2,520.3,29.8c39.1-0.1,77.4,10.7,110.7,31.3
					C510.4,22.6,381.5,89,343,209.5c-14.5,45.3-14.5,94,0,139.4C322.6,316,311.9,278.1,311.9,239.4z"/>
			</g>
		</g>
	</g>
	<circle class="st9" cx="526.7" cy="245.4" r="209.3"/>
	<path class="st10" d="M408.2,307.1c78.6,13.7,159.2,10.5,236.5-9.3c-22.1,66.3-93.7,102.1-160,80
		C450.3,366.3,422.4,340.6,408.2,307.1z"/>
	<path class="st11" d="M428,319.2c65.7,12.9,133.6,10.1,198-8.2"/>
	<path class="st12" d="M408.2,307.1c78.6,13.7,159.2,10.5,236.5-9.3c-22.1,66.3-93.7,102.1-160,80
		C450.3,366.3,422.4,340.6,408.2,307.1z"/>
	<path class="st12" d="M587.5,140.4c24.1-7.7,50.4,0.4,66,20.3"/>
	<path class="st12" d="M403.3,160.8c14.7-17.7,38.1-25.6,60.5-20.4"/>
	<circle class="st13" cx="450.9" cy="210.7" r="24.8"/>
	<circle class="st8" cx="443" cy="202.9" r="7.9"/>
	<circle class="st13" cx="602.5" cy="210.7" r="24.8"/>
	<circle class="st8" cx="594.6" cy="202.9" r="7.9"/>
</g>
<g>
	<g>
		<g>
			<defs>
				<rect id="SVGID_11_" x="117" y="452" width="320" height="300"/>
			</defs>
			<clipPath id="SVGID_12_">
				<use xlink:href="#SVGID_11_"  style="overflow:visible;"/>
			</clipPath>
			<path class="st14" d="M347.6,704.1L276.9,656l-70.7,48.2l27-78L162.5,578h87.4l27-78l27,78h87.4l-70.7,48.2L347.6,704.1z"/>
		</g>
		<g>
			<defs>
				<rect id="SVGID_13_" x="117" y="452" width="320" height="300"/>
			</defs>
			<clipPath id="SVGID_14_">
				<use xlink:href="#SVGID_13_"  style="overflow:visible;"/>
			</clipPath>
			<g id="XMLID_1_" class="st15">
				<g>
					<polygon class="st2" points="352,590 305.6,621.6 323.3,672.7 276.9,641.1 230.5,672.7 248.3,621.6 201.9,590 259.2,590 
						276.9,538.9 294.6,590 					"/>
				</g>
			</g>
		</g>
	</g>
</g>
</svg>
