<?xml version="1.0" encoding="utf-8"?>
<!-- Generator: Adobe Illustrator 24.1.2, SVG Export Plug-In . SVG Version: 6.00 Build 0)  -->
<svg version="1.1" id="Layer_1" xmlns="http://www.w3.org/2000/svg" xmlns:xlink="http://www.w3.org/1999/xlink" x="0px" y="0px"
	 viewBox="0 0 1024 768" style="enable-background:new 0 0 1024 768;" xml:space="preserve">
<style type="text/css">
	.st0{clip-path:url(#SVGID_2_);fill:#1B2F5A;}
	.st1{clip-path:url(#SVGID_4_);}
	.st2{fill:#FFFFFF;}
	.st3{clip-path:url(#SVGID_6_);fill:#1B2F5A;}
	.st4{clip-path:url(#SVGID_8_);}
	.st5{fill:#F2BF38;}
	.st6{clip-path:url(#SVGID_10_);}
	.st7{fill:#FAE053;}
	.st8{fill:none;stroke:#1B2E5A;stroke-width:16.5;stroke-miterlimit:10;}
	.st9{fill:#1B2E5A;}
	.st10{fill:none;stroke:#FFFFFF;stroke-width:32.9998;stroke-linecap:round;stroke-linejoin:round;}
	.st11{fill:none;stroke:#1B2E5A;stroke-width:16.5;stroke-linecap:round;stroke-linejoin:round;}
	.st12{fill:#1B2E5A;stroke:#1B2E5A;stroke-width:11;stroke-miterlimit:10;}
	.st13{clip-path:url(#SVGID_12_);fill:#1B2F5A;}
	.st14{clip-path:url(#SVGID_14_);}
	.st15{fill:#1B2F5A;}
</style>
	<g>
	<circle class="st5" cx="526.7" cy="245.4" r="209.3"/>
		<g>
		<g>
			<defs>
				<circle id="SVGID_9_" cx="526.7" cy="245.4" r="209.3"/>
			</defs>
			<clipPath id="SVGID_10_">
				<use xlink:href="#SVGID_9_"  style="overflow:visible;"/>
			</clipPath>
			<g class="st6">
				<circle class="st7" cx="486.9" cy="205.7" r="228.9"/>
				<path class="st2" d="M311.9,239.4C311.6,124,404.8,30.2,520.3,29.8c39.1-0.1,77.4,10.7,110.7,31.3
					C510.4,22.6,381.5,89,343,209.5c-14.5,45.3-14.5,94,0,139.4C322.6,316,311.9,278.1,311.9,239.4z"/>
			</g>
		</g>
	</g>
		<circle class="st8" cx="526.7" cy="245.4" r="209.3"/>
		<path class="st9" d="M408.2,307.1c78.6,13.7,159.2,10.5,236.5-9.3c-22.1,66.3-93.7,102.1-160,80
		C450.3,366.3,422.4,340.6,408.2,307.1z"/>
		<path class="st10" d="M428,319.2c65.7,12.9,133.6,10.1,198-8.2"/>
		<path class="st11" d="M408.2,307.1c78.6,13.7,159.2,10.5,236.5-9.3c-22.1,66.3-93.7,102.1-160,80
		C450.3,366.3,422.4,340.6,408.2,307.1z"/>
		<path class="st11" d="M587.5,140.4c24.1-7.7,50.4,0.4,66,20.3"/>
		<path class="st11" d="M403.3,160.8c14.7-17.7,38.1-25.6,60.5-20.4"/>
		<circle class="st12" cx="450.9" cy="210.7" r="24.8"/>
		<circle class="st2" cx="443" cy="202.9" r="7.9"/>
		<circle class="st12" cx="602.5" cy="210.7" r="24.8"/>
		<circle class="st2" cx="594.6" cy="202.9" r="7.9"/>
</g>
</svg>
