<?xml version="1.0" encoding="utf-8"?>
<!-- Generator: Adobe Illustrator 18.0.0, SVG Export Plug-In . SVG Version: 6.00 Build 0)  -->
<!DOCTYPE svg PUBLIC "-//W3C//DTD SVG 1.1//EN" "http://www.w3.org/Graphics/SVG/1.1/DTD/svg11.dtd">
<svg version="1.1" id="Layer_1" xmlns="http://www.w3.org/2000/svg" xmlns:xlink="http://www.w3.org/1999/xlink" x="0px" y="0px"
	 viewBox="0 0 59 23.6" enable-background="new 0 0 59 23.6" xml:space="preserve">
<g>
	<path fill="#002c5a" d="M0.3,12.3c0,1.1,1,1.8,1.9,1.9l2.2,0.3c1,0.1,1.2,0.4,1.2,0.9c0,0.4-0.3,1-2,1c-1.5,0-2.1-0.7-2.1-1.3V15H0
		L0,15c0.1,1.6,1.3,2.4,3.6,2.4c2.3,0,3.5-0.9,3.5-2.4c0-1.1-0.8-1.7-2.4-1.9L2.8,13c-0.9-0.1-1.1-0.4-1.1-0.8c0-0.9,1.3-1,1.7-1
		c1.4,0,2,0.6,2,1.2l0,0.1h1.4l0-0.1C6.7,10.9,5.5,10,3.4,10C1.5,10,0.3,10.9,0.3,12.3 M15,10.3h-1.5c0,0-2.2,5.1-2.3,5.3
		c-0.1-0.3-2.3-5.3-2.3-5.3H7.2c0,0,3.2,7,3.2,7c0,0-0.3,0.6-0.3,0.6c-0.4,0.9-0.6,1-1.4,1l-0.5,0l-0.3,0l0,0.1v1.2l0.1,0
		c0.3,0,0.6,0.1,1,0.1c1.2,0,1.8-0.2,2.4-1.7L15,10.3L15,10.3z M17.1,11.2v-0.9h-1.4v7h1.4v-4c0-1.4,1.1-2,2.2-2c1.3,0,2,0.5,2,1.5
		v4.5h1.4v-4.7c0-1.6-1-2.5-2.9-2.5C19,10,17.8,10.2,17.1,11.2 M23.8,13.8c0,2.3,1.6,3.7,4,3.7c1.3,0,2.9-0.6,3.6-2.4l0-0.1H30l0,0
		c-0.5,1.1-1.7,1.2-2.2,1.2c-1.1,0-2.3-0.7-2.4-2h6.3V14c0-2.9-1.9-3.9-3.8-3.9C25.4,10,23.8,11.5,23.8,13.8 M27.8,11.3
		c1.2,0,2.1,0.7,2.3,1.8h-4.7C25.6,12,26.6,11.3,27.8,11.3 M34.3,11.4v-1.1h-1.4v7h1.4v-3.5c0-1.4,0.8-2.2,2.1-2.2
		c0.3,0,0.6,0.1,0.9,0.1l0.1,0v-1.5l0,0c-0.3-0.1-0.4-0.1-0.8-0.1C35.9,10,35,10.3,34.3,11.4 M37.8,13.7c0,2.7,2.1,3.6,3.8,3.6
		c1.2,0,2-0.4,2.6-1.2V17c0,0.7-0.3,2-2.5,2c-1.2,0-2-0.2-2.2-1.1l0,0h-1.4l0,0.1c0.3,1.9,2,2.2,3.5,2.2c2.9,0,4-1,4-3.5v-6.3h-1.4
		v0.9c-0.5-0.7-1.5-1.1-2.6-1.1C39.9,10.1,37.8,11.1,37.8,13.7 M39.4,13.7c0-1.5,1-2.4,2.5-2.4c1.5,0,2.5,1,2.5,2.4
		c0,1.4-1,2.4-2.5,2.4C40.3,16.1,39.4,15.2,39.4,13.7 M53.9,10.3h-1.5c0,0-2.2,5.1-2.3,5.3c-0.1-0.3-2.3-5.3-2.3-5.3h-1.6
		c0,0,3.2,7,3.2,7c0,0-0.3,0.6-0.3,0.6c-0.4,0.9-0.6,1-1.4,1l-0.5,0l-0.3,0l0,0.1v1.2l0.1,0c0.3,0,0.6,0.1,1,0.1
		c1.2,0,1.8-0.2,2.4-1.7L53.9,10.3L53.9,10.3z"/>
	<polygon fill="#FDBE57" points="37.8,6.6 39.6,5.1 42.7,1.9 39,4.4 38.8,0 38,4.3 34.7,1.3 37.3,4.9 32.8,5.1 37.2,5.9 34.2,9.1 	
		"/>
	<path fill="#FDBE57" d="M59,14c0-6.3-5.3-11.5-11.8-11.5C44.5,2.5,42,3.5,40,5c1.8-1.1,4-1.7,6.3-1.7c6.4,0,11.7,4.8,11.7,10.7
		c0,0.5,0,0.9-0.1,1.3c-0.1,1.4-0.4,2.7-1,3.9c-0.7,1.7-1.8,3.1-3.1,4.3C56.9,21.5,59,18,59,14"/>
</g>
</svg>
