<?xml version="1.0" encoding="utf-8"?>
<!-- Generator: Adobe Illustrator 24.3.0, SVG Export Plug-In . SVG Version: 6.00 Build 0)  -->
<svg version="1.1" id="Layer_1" xmlns="http://www.w3.org/2000/svg" xmlns:xlink="http://www.w3.org/1999/xlink" x="0px" y="0px"
	 viewBox="0 0 64 64" style="enable-background:new 0 0 64 64;" xml:space="preserve">
<style type="text/css">
	.st0{fill:none;}
	.st1{fill:#FFFFFF;}
	.st2{fill:#008F9A;}
</style>
<path class="st0" d="M9.9,31.1c0,7.4,0,28.9,0,28.9h41V4H35.2C29,4.4,29,9.3,29,13v10c0,0-6.6,0-10,0c-4.5,0-9,0-9,7.5L9.9,31.1
	L9.9,31.1z"/>
<path class="st1" d="M53,0H31.5l0,0c-1.3,0-3.1,0.2-5.2,2.3C24.6,4,11.7,17.7,9,20.4c-2.3,2.3-3,4.7-3,5.6v36c0,1.1,0.9,2,2,2h45
	c1.1,0,2-0.9,2-2V2C55,0.9,54.1,0,53,0L53,0z"/>
<path class="st2" d="M18.9,23c3.4,0,10,0,10,0V13c0-3.7,0-8.6,6.2-9H51v56H10V31.1v-0.7C9.9,23,14.5,23,18.9,23L18.9,23z"/>
<path class="st1" d="M39.1,55.7c-1.5,0-2.8-1.3-2.8-2.8s1.3-2.8,2.8-2.8s2.8,1.2,2.8,2.8C41.8,54.4,40.6,55.7,39.1,55.7z M40.3,44.7
	c0,0.5,0.3,0.9,0.3,1.3c0,0.9-0.7,1.8-1.8,1.8c-1.5,0-2.5-1.7-2.5-3.5c0-4.7,6.2-5.2,6.2-8.5c0-1.5-1.1-2.8-3.6-2.8
	c-1.6,0-2.9,0.6-4,1.5c-0.4,0.3-0.9,0.4-1.4,0.4c-1,0-1.9-0.8-1.9-1.9c0-0.4,0.1-0.7,0.3-1c1.4-2,4.8-3.1,7.6-3.1
	c4.9,0,7.9,2.6,7.9,6.1C47.2,40.8,40.3,41.3,40.3,44.7L40.3,44.7z"/>
</svg>
