<svg xmlns="http://www.w3.org/2000/svg" x="0" y="0" width="64" height="64" viewBox="0 0 64 64"><path d="M32 0C14.327 0 0 14.327 0 32c0 17.673 14.327 32 32 32s32-14.327 32-32C64 14.327 49.673 0 32 0zm.026 14.24c1.82 0 3.224 1.457 3.224 3.277 0 .624-.623 15.444-.78 18.98-.052 1.353-1.09 2.393-2.548 2.393-1.352 0-2.392-1.04-2.443-2.393-.157-3.536-.78-18.356-.78-18.98-.054-1.82 1.403-3.276 3.326-3.276zm-.05 35.52c-2.03 0-3.642-1.717-3.642-3.64 0-2.03 1.612-3.693 3.64-3.693s3.692 1.664 3.692 3.692c0 1.923-1.664 3.64-3.69 3.64z" fill="#6ca6cd"/></svg>