<svg xmlns="http://www.w3.org/2000/svg" viewBox="0 0 64 64"><g fill="#67c8ff"><path d="M64 32.002l-11.952-7.476 3.172-13.74-13.736 3.172L34 2v18.248h.004c6.65 0 12.043 5.39 12.043 12.048 0 6.652-5.392 12.045-12.043 12.045H34V62l7.483-11.954 13.736 3.17-3.173-13.74L64 32zM27.972 2.147c-1.1 0-2 .9-2 2v6.964L20.3 7.72c-.944-.564-2.178-.254-2.743.69s-.254 2.178.69 2.743l7.725 4.62v12.765L14.09 21.434l.012-8.025c.002-1.1-.897-2.002-1.997-2.004-1.1-.002-2 .897-2.003 1.997l-.013 5.64-6.915-4.135c-.944-.564-2.178-.254-2.743.69s-.254 2.178.69 2.743l6.896 4.124-4.613 2.655c-.953.548-1.284 1.777-.736 2.73.548.953 1.777 1.284 2.73.736l6.556-3.767 10.117 6.048-10.17 6.082L5.4 33.214c-.952-.55-2.18-.218-2.73.736-.55.953-.218 2.182.736 2.73l4.56 2.625-6.843 4.09c-.944.565-1.255 1.8-.69 2.744.564.943 1.8 1.254 2.743.69l6.914-4.135.013 5.67c.002 1.1.903 2 2.003 1.998 1.1-.002 2-.903 1.997-2.003l-.012-8.057L25.974 33.2v12.886l-7.84 4.688c-.945.564-1.256 1.8-.69 2.743.563.944 1.798 1.255 2.742.69l5.788-3.46v8.914c0 1.1.9 2 2 2s2-.9 2-2V4.148c0-1.1-.9-2-2-2z"/></g></svg>