<?xml version="1.0" encoding="utf-8"?>
<!-- Generator: Adobe Illustrator 24.1.2, SVG Export Plug-In . SVG Version: 6.00 Build 0)  -->
<svg version="1.1" id="Layer_1" xmlns="http://www.w3.org/2000/svg" xmlns:xlink="http://www.w3.org/1999/xlink" x="0px" y="0px"
	 viewBox="0 0 98.8 144.2" style="enable-background:new 0 0 98.8 144.2;" xml:space="preserve">
<style type="text/css">
	.Arched_x0020_Green{fill:url(#SVGID_1_);stroke:#FFFFFF;stroke-width:0.25;stroke-miterlimit:1;}
	.st0{fill:#FFFFFF;}
</style>
<linearGradient id="SVGID_1_" gradientUnits="userSpaceOnUse" x1="-166.7275" y1="254.3477" x2="-166.0204" y2="253.6406">
	<stop  offset="0" style="stop-color:#20AC4B"/>
	<stop  offset="0.9831" style="stop-color:#19361A"/>
</linearGradient>
<g>
	<path d="M93,1.1H5.8c-2.6,0-4.7,2.1-4.7,4.7v132.6c0,2.6,2.1,4.7,4.7,4.7H93c2.6,0,4.7-2.1,4.7-4.7V5.8C97.6,3.2,95.5,1.1,93,1.1z"
		/>
	<path class="st0" d="M51.7,105c-0.3-0.6-0.5-1-1.6-1h-2.8c-1.1,0-1.3,0.4-1.6,1c-0.3,0.6-8.2,22.2-8.2,22.2s-0.5,0.9,0.7,0.9
		c1.2,0,1.5,0,2,0c0.5,0,1.2-0.1,1.5-1c0.3-0.8,1.5-4.1,1.5-4.1h11.2c0,0,1.2,3.3,1.5,4.1c0.3,0.9,0.9,1,1.5,1c0.5,0,0.8,0,2,0
		c1.2,0,0.7-0.9,0.7-0.9S51.9,105.6,51.7,105z M44.7,119.1l4-11.2l4.2,11.2H44.7z M94.1,0H4.7C2.1,0,0,2.1,0,4.7v134.8
		c0,2.6,2.1,4.7,4.7,4.7h89.4c2.6,0,4.7-2.1,4.7-4.7V4.7C98.8,2.1,96.7,0,94.1,0z M35.9,35.7h16c4.2,0,7.6,3.6,7.6,7.8
		c0,4.2-3.4,7.6-7.6,7.6l-2.8,0.1c-1.5,0.1-2.2,0.9-2.3,2.3v9.3c0.1,1.5,1,2.2,2.4,2.2H56c4.6,0,8.2,3.7,8.2,8.2
		c0,4.3-3.3,7.8-7.5,8.2l-18.6,0c-1.4,0-2.3-0.8-2.3-2.3V35.7z M6.7,8.9L6.7,8.9c0-1.2,0.9-2.1,2-2.2c0,0,5.1,0,12.7,0v14.7H6.7
		C6.7,13.7,6.7,8.9,6.7,8.9z M92.1,135.1c0,1.2-0.6,2.3-2.4,2.4H8.9c0,0-0.1,0-0.2,0c-1.2-0.1-2.1-1-2.1-2.2c0,0,0-62.1,0-99.2h24.6
		l-9.9,3.6V94c0,1.5,0.8,2.3,2.1,2.4H57c11.4-0.4,20.6-9.7,20.6-21.2c0-7.5-3.9-14.2-9.8-17.9c3.7-3.3,6.5-8.6,6.5-13.9
		c0-14.1-10-22-24.2-22H36.1V6.7c23.5,0,53.6,0,53.6,0c1.8,0,2.4,1.2,2.4,2.4V135.1z M31,104h-8.8c-0.8,0-0.9,0.6-0.9,1
		c0,0.4,0,22.2,0,22.2c0,0.9,0.8,0.9,0.9,0.9h2.2c0.4,0,0.8-0.3,0.8-0.7l0-8H31c4.3,0,7.7-3.5,7.7-7.7C38.8,107.4,35.3,104,31,104z
		 M31,115.6h-5.6v-7.6l5.6,0c2.1,0,3.8,1.7,3.8,3.8C34.8,113.9,33.1,115.6,31,115.6z M75.9,104c-1.2,0-1.8,0-2.3,0
		c-0.5,0-1.2,0.1-1.5,1l-1.1,2l-4.4,7.7l-4.4-7.7l-1.1-2c-0.3-0.9-0.9-1-1.5-1c-0.5,0-1.1,0-2.3,0c-1.2,0-0.7,0.9-0.7,0.9
		s4.4,7.9,8,14.2c0,0-0.1,7.6-0.1,8.1c0,0.5,0.3,0.9,0.9,0.9h2.1c0.4,0,1,0,1-0.8l0-8.1c3.6-6.4,8-14.2,8-14.2S77.1,104,75.9,104z"
		/>
</g>
</svg>
