<?xml version="1.0" encoding="utf-8"?>
<!-- Generator: Adobe Illustrator 22.0.1, SVG Export Plug-In . SVG Version: 6.00 Build 0)  -->
<svg version="1.1" id="Layer_1" xmlns="http://www.w3.org/2000/svg" xmlns:xlink="http://www.w3.org/1999/xlink" x="0px" y="0px"
	 viewBox="0 0 64 64" style="enable-background:new 0 0 64 64;" xml:space="preserve">
<style type="text/css">
	.st0{fill:#B9BCBD;}
</style>
<g>
	<g>
		<g>
			<g>
				<g>
					<path class="st0" d="M11.6,22.2L11.6,22.2c0.9,0,1.7-0.8,1.7-1.7V5.3h37.5v10.8c0,0.9,0.8,1.7,1.7,1.7l0,0
						c0.9,0,1.7-0.8,1.7-1.7V3.7c0-0.4-0.2-0.9-0.4-1.2S53,2,52.5,2l0,0H11.6c-0.4,0-0.9,0.2-1.2,0.4C10,2.8,9.9,3.2,9.9,3.7v16.9
						C9.9,21.4,10.7,22.2,11.6,22.2z"/>
					<path class="st0" d="M52.5,27.3L52.5,27.3c-0.9,0-1.7,0.8-1.7,1.7v29.6H13.2V33.3c0-0.9-0.8-1.7-1.7-1.7l0,0
						c-0.9,0-1.7,0.8-1.7,1.7v26.8c0,0.4,0.2,0.9,0.4,1.2c0.3,0.3,0.8,0.4,1.2,0.4l0,0h40.8c0.9,0,1.7-0.8,1.7-1.7V28.9
						C54.1,28,53.4,27.3,52.5,27.3z"/>
					<path class="st0" d="M4.3,25.7l-2.8,0.2C0.7,26,0,26.8,0,27.7c0.1,0.9,0.8,1.5,1.7,1.5h0.1L4.5,29C5.4,28.9,6,28.1,6,27.2
						S5.3,25.6,4.3,25.7z"/>
					<path class="st0" d="M54.5,21.2l-5,0.4c-0.9,0.1-1.5,0.9-1.5,1.8c0.1,0.9,0.8,1.5,1.7,1.5h0.1l5-0.4c0.9-0.1,1.5-0.9,1.5-1.8
						C56.3,21.7,55.4,21.1,54.5,21.2z"/>
					<path class="st0" d="M36.3,24.5c-0.1-0.9-0.9-1.5-1.8-1.5l-5,0.4c-0.9,0.1-1.5,0.9-1.5,1.8c0.1,0.9,0.8,1.5,1.7,1.5h0.1l5-0.4
						C35.6,26.2,36.4,25.4,36.3,24.5z"/>
					<path class="st0" d="M16.2,26.4c-0.1-0.9-0.9-1.5-1.8-1.5l-5.1,0.4c-0.9,0.1-1.5,0.9-1.5,1.8c0.1,0.9,0.8,1.5,1.7,1.5h0.1
						l5-0.4C15.7,28,16.2,27.3,16.2,26.4z"/>
					<path class="st0" d="M19.4,24.4c-0.9,0.1-1.5,0.9-1.5,1.8c0.1,0.9,0.8,1.5,1.7,1.5h0.1l5-0.4c0.9-0.1,1.5-0.9,1.5-1.8
						C26,24.6,25.3,24,24.4,24L19.4,24.4z"/>
					<path class="st0" d="M46.3,23.5c-0.1-0.9-0.9-1.5-1.8-1.5l-5,0.4c-0.9,0.1-1.5,0.9-1.5,1.8c0.1,0.9,0.8,1.5,1.7,1.5h0.1l5-0.4
						C45.7,25.3,46.4,24.5,46.3,23.5z"/>
					<path class="st0" d="M62.2,20.4l-2.8,0.2c-0.9,0.1-1.5,0.9-1.5,1.8c0.1,0.9,0.8,1.5,1.7,1.5h0.1l2.8-0.2
						c0.9-0.1,1.5-0.9,1.5-1.8S63.3,20.3,62.2,20.4z"/>
					<path class="st0" d="M45.8,47.1c0-2.9-2.2-3.7-4.4-4.4v-4.5c0.8,0.2,1.4,0.4,2.1,1c0.1,0.1,0.4,0.2,0.7,0.2
						c0.5,0,1.1-0.5,1.1-1.1c0-0.3-0.2-0.7-0.4-0.9c-1-0.7-2.1-1.2-3.3-1.3v-1.2c0-0.8-0.5-1.3-1.3-1.3l0,0c-0.8,0-1.3,0.5-1.3,1.3
						v1.2c-2.5,0.4-4.2,2.1-4.2,4.3c0,2.6,2.1,3.5,4.2,4.2v5c-1.1-0.2-2-0.7-2.6-1.3c-0.2-0.1-0.4-0.2-0.7-0.2
						c-0.5,0-1.1,0.5-1.1,1.1c0,0.3,0.1,0.7,0.4,0.9c1.1,0.9,2.4,1.4,4.1,1.7V53c0,0.8,0.5,1.3,1.3,1.3l0,0c0.8,0,1.3-0.5,1.3-1.3
						v-1.2C44.6,51.2,45.8,49.3,45.8,47.1z M36.9,40.3c0-1,0.8-1.8,1.9-2.1v3.9C37.6,41.6,36.9,41.2,36.9,40.3z M41.4,49.6v-4.3
						c1.2,0.4,2.1,1,2.1,2.1C43.6,48.2,42.9,49.3,41.4,49.6z"/>
				</g>
			</g>
		</g>
	</g>
</g>
</svg>
