<?xml version="1.0" encoding="utf-8"?>
<!-- Generator: Adobe Illustrator 22.0.1, SVG Export Plug-In . SVG Version: 6.00 Build 0)  -->
<svg version="1.1" id="Layer_1" xmlns="http://www.w3.org/2000/svg" xmlns:xlink="http://www.w3.org/1999/xlink" x="0px" y="0px"
	 viewBox="0 0 64 64" style="enable-background:new 0 0 64 64;" xml:space="preserve">
<style type="text/css">
	.st0{fill:#B9BCBD;}
</style>
<g>
	<g>
		<g>
			<g>
				<path class="st0" d="M33.8,52.1H1.3c-0.7,0-1.3-0.6-1.3-1.3V23.4c0-0.4,0.2-0.9,0.6-1L17,11.2c0.4-0.3,1-0.3,1.5,0l16.4,11.1
					c0.3,0.3,0.6,0.6,0.6,1v27.4C35.1,51.4,34.6,52.1,33.8,52.1z M2.6,49.6h30V24l-15-10.2L2.6,24V49.6L2.6,49.6z"/>
			</g>
			<g>
				<path class="st0" d="M62.4,52H38.8c-0.7,0-1.3-0.6-1.3-1.3v-20c0-0.4,0.2-0.9,0.6-1L50,21.6c0.4-0.3,1-0.3,1.5,0l11.9,8.1
					c0.3,0.3,0.6,0.6,0.6,1v19.9C63.8,51.4,63.2,52,62.4,52z M40.1,49.4h21.2V31.5l-10.6-7.2l-10.5,7.2L40.1,49.4L40.1,49.4z"/>
			</g>
			<g>
				<path class="st0" d="M29.1,46.8H7c-0.7,0-1.3-0.6-1.3-1.3s0.6-1.3,1.3-1.3h22.2c0.7,0,1.3,0.6,1.3,1.3
					C30.4,46.3,29.9,46.8,29.1,46.8z"/>
			</g>
			<g>
				<path class="st0" d="M29.1,42.3H12.5c-0.7,0-1.3-0.6-1.3-1.3s0.6-1.3,1.3-1.3h16.6c0.7,0,1.3,0.6,1.3,1.3S29.9,42.3,29.1,42.3z"
					/>
			</g>
			<g>
				<path class="st0" d="M29.1,37.3H17.8c-0.7,0-1.3-0.6-1.3-1.3s0.6-1.3,1.3-1.3h11.5c0.7,0,1.3,0.6,1.3,1.3
					C30.4,36.7,29.9,37.3,29.1,37.3z"/>
			</g>
			<g>
				<path class="st0" d="M58.9,47.5h-16c-0.7,0-1.3-0.6-1.3-1.3s0.6-1.3,1.3-1.3h15.9c0.7,0,1.3,0.6,1.3,1.3
					C60.1,46.9,59.5,47.5,58.9,47.5z"/>
			</g>
			<g>
				<path class="st0" d="M58.9,43.3H47.8c-0.7,0-1.3-0.6-1.3-1.3s0.6-1.3,1.3-1.3h11c0.7,0,1.3,0.6,1.3,1.3S59.5,43.3,58.9,43.3z"/>
			</g>
		</g>
	</g>
</g>
</svg>
