<svg xmlns="http://www.w3.org/2000/svg" viewBox="0 0 64 64"><path d="M47.607 60H6.61l-.003-28.872v-.667c0-7.502 4.516-7.492 8.99-7.492 3.43 0 10 .03 10 .03V13c0-3.73.018-8.575 6.235-9h15.776v14l4.01-1.972V2c0-1.1-.9-2-2-2H28.15l-.008.004c-1.258.017-3.1.227-5.22 2.343C21.24 4.03 8.346 17.674 5.664 20.352 3.307 22.708 2.61 25.085 2.61 26.05V62c0 1.1.9 2 2 2h45.008c1.1 0 2-.9 2-2l.02-4.008-4.012.007-.02 2z" fill="#AFCB12"/><g fill="#AFCB12"><path d="M51.43 27.137h-11.1c-.61 0-1.108.503-1.108 1.13 0 .623.496 1.13 1.108 1.13h11.098c.61 0 1.107-.505 1.107-1.13 0-.625-.494-1.13-1.106-1.13zM39.69 26.007h12.378s4.905-4.36 2.688-6.267c-2.22-1.908-7.146 2.118-8.876 1.978-1.732.14-6.66-3.886-8.875-1.978-2.22 1.906 2.685 6.267 2.685 6.267zM52.067 30.527H39.69c-5.498 4.085-9.345 12.745-9.345 18.238 0 7.26 6.703 6.638 15.063 6.613l.208-.002h.263c8.58 0 15.533.788 15.533-6.61 0-5.495-3.85-14.154-9.346-18.24zm-5.45 16.906v.93c0 .344-.294.638-.654.638-.392 0-.687-.293-.687-.636v-.93c-1.34-.1-2.78-.606-3.4-1.39-.115-.147-.18-.31-.18-.507 0-.49.408-.93.898-.93.196 0 .376.064.54.18.572.44 1.292.8 2.142.914v-3.12c-1.684-.425-3.467-1.03-3.467-3.17 0-1.666 1.34-2.99 3.466-3.17v-.98c0-.343.294-.637.687-.637.36 0 .654.294.654.637v.997c1.03.114 2.24.474 2.83 1.176.114.13.18.31.18.49 0 .523-.46.915-.95.915-.113 0-.228-.033-.342-.082-.54-.294-1.128-.62-1.717-.735V40.8c1.684.457 3.532 1.095 3.532 3.284 0 1.684-1.096 3.122-3.533 3.35z"/><path d="M46.617 42.94v2.76c1.096-.162 1.537-.8 1.537-1.42 0-.736-.67-1.08-1.537-1.34zM43.805 39.263c0 .637.62.948 1.472 1.193V37.94c-.9.098-1.472.604-1.472 1.323z"/></g></svg>