<?xml version="1.0" encoding="iso-8859-1"?>
<!-- Generator: Adobe Illustrator 18.0.0, SVG Export Plug-In . SVG Version: 6.00 Build 0)  -->
<svg version="1.1" id="ICONS_NEW" xmlns="http://www.w3.org/2000/svg" xmlns:xlink="http://www.w3.org/1999/xlink" x="0px" y="0px"
	 viewBox="0 0 64 64" style="enable-background:new 0 0 64 64;" xml:space="preserve">
<path style="fill:#f5644c;" d="M32,0C14.327,0,0,14.327,0,32c0,17.673,14.327,32,32,32s32-14.327,32-32C64,14.327,49.673,0,32,0z
	 M32.026,14.241c1.82,0,3.224,1.456,3.224,3.276c0,0.624-0.623,15.444-0.779,18.98c-0.053,1.353-1.092,2.393-2.549,2.393
	c-1.352,0-2.392-1.04-2.443-2.393c-0.156-3.536-0.78-18.356-0.78-18.98C28.646,15.697,30.103,14.241,32.026,14.241z M31.975,49.759
	c-2.028,0-3.641-1.716-3.641-3.64c0-2.028,1.612-3.692,3.641-3.692c2.027,0,3.691,1.664,3.691,3.692
	C35.666,48.043,34.002,49.759,31.975,49.759z"/>
</svg>
