<svg xmlns="http://www.w3.org/2000/svg" viewBox="0 0 64 64"><path d="M9.15 44.53h-.22c-1.292.06-2.15.966-2.15 2.273 0 .703.25 1.032.726 1.477l-.734 4.35h4.5l-.766-4.35c.477-.445.773-.866.773-1.57-.002-1.307-.836-2.12-2.13-2.18zM9.024 35.003c-2.212 0-3.74 1.8-3.74 4.01v1.746h7.467v-1.746c0-2.212-1.515-4.01-3.726-4.01z" fill="none"/><path d="M16.524 40.76h-.77v-1.746c0-3.874-2.857-7.014-6.73-7.014-3.874 0-6.742 3.14-6.742 7.014v1.745h-.76c-.824 0-1.5.674-1.5 1.5v13.518c0 .825.676 1.5 1.5 1.5h15.002c.825 0 1.5-.675 1.5-1.5V42.26c0-.826-.675-1.5-1.5-1.5zM11.27 52.63h-4.5l.735-4.35c-.477-.445-.725-.773-.725-1.477 0-1.307.857-2.214 2.15-2.273h.22c1.293.06 2.128.873 2.128 2.18 0 .703-.296 1.125-.773 1.57l.765 4.35zm1.48-11.87H5.285v-1.746c0-2.212 1.527-4.01 3.74-4.01 2.21 0 3.726 1.798 3.726 4.01v1.745z" fill="#182124"/><g fill="#182124"><path d="M46.395 46.39c1.06.957 2.455 1.557 3.996 1.557 3.31 0 5.995-2.688 5.995-6s-2.686-6-5.994-6c-1.54 0-2.935.602-3.995 1.558-1.06-.958-2.456-1.558-3.996-1.558-3.31 0-5.995 2.688-5.995 6s2.685 6 5.994 6c1.54 0 2.933-.602 3.995-1.558z"/><path d="M57.977 10.013H13.07c-3.308 0-6 2.69-6 6V28.03h4v-.014h48.906v21.346c0 1.103-.897 2-2 2H22.024v4h35.953c3.31 0 6-2.69 6-6v-33.35c0-3.308-2.692-6-6-6zM11.07 20.016v-4.003c0-1.103.898-2 2-2h44.906c1.103 0 2 .897 2 2v4.003H11.07z"/></g></svg>