<?xml version="1.0" encoding="utf-8"?>
<!-- Generator: Adobe Illustrator 16.0.0, SVG Export Plug-In . SVG Version: 6.00 Build 0)  -->
<!DOCTYPE svg PUBLIC "-//W3C//DTD SVG 1.1//EN" "http://www.w3.org/Graphics/SVG/1.1/DTD/svg11.dtd">
<svg version="1.1" id="Layer_1" xmlns="http://www.w3.org/2000/svg" xmlns:xlink="http://www.w3.org/1999/xlink" x="0px" y="0px"
	 width="686px" height="714.5px" viewBox="-17 0 686 714.5" enable-background="new -17 0 686 714.5" xml:space="preserve">
<g>
	<path fill="#FFFFFF" d="M133.904,213.815h152.11v191.394h-152.12L133.904,213.815z M325.45,290.755h152.693v38.25H325.45V290.755z
		 M325.45,366.958h152.693v38.25H325.45V366.958z M363.308,577.496h-114.75v38.25l-57.375,57.375h229.5l-57.375-57.375
		 M325.45,213.815h152.693v38.25H325.45V213.815z"/>
	<path fill="#FFFFFF" d="M660.964,42.003c-82.037,66.855-131.24,167.315-131.24,167.315l-67.193-57.435
		c-6.674-5.686-7.735-15.564-2.486-22.514l1.998-2.639c3.219-4.344,8.188-6.63,13.226-6.63c3.23,0,6.489,0.939,9.336,2.879
		l33.647,23.117C518.25,146.096,574.184,67.157,660.964,42.003"/>
	<path fill="#FFFFFF" d="M573.588,192.403v270.343h-535.5V157.129H430.28c-5.02-12.143-4.77-26.12,1.163-38.25H19.125
		C8.606,118.879,0,127.485,0,138.004V523.21c0,10.52,8.606,19.125,19.125,19.125h573.75c10.519,0,19.125-8.605,19.125-19.125
		V138.004c0-0.525-0.037-1.042-0.079-1.556C595.828,157.261,582.889,177.053,573.588,192.403z"/>
</g>
</svg>
