<svg xmlns="http://www.w3.org/2000/svg" viewBox="0 0 64 64"><g fill="#ffffff"><path d="M28.07 64h7.863c2.173 0 4.06-1.738 4.06-4H23.976c0 2.262 1.922 4 4.094 4zM42.085 53.97H21.9c-1.057.156-1.922.942-1.922 1.998s.864 2 1.92 2.063h20.187c1.056-.063 1.92-1.006 1.92-2.062 0-1.057-.863-1.843-1.92-2zM40 52.005c1.102 0 2.003-.9 2.003-2.002 0-1.1-.9-2.002-2.002-2.002H23.984c-1.1 0-2.002.902-2.002 2.003 0 1.1.902 2.002 2.003 2.002H40z"/></g><path d="M52.02 20.015C52.02 8.96 43.058 0 32 0 20.94 0 11.976 8.96 11.976 20.015c0 10.882 6.563 12.15 7.79 24.018h.005c0 1.106.895 2.002 2.002 2.002h20.452c1.107 0 2.002-.896 2.002-2.002 1.233-11.87 7.794-13.135 7.794-24.018zM31.75 37.178c-1.473 0-2.753-1.28-2.753-2.753 0-1.512 1.28-2.753 2.753-2.753 1.512 0 2.753 1.24 2.753 2.753 0 1.473-1.24 2.753-2.752 2.753zm1.24-10.973c0 .543.273.853.273 1.318 0 .853-.658 1.784-1.822 1.784-1.512 0-2.52-1.745-2.52-3.49 0-4.73 6.204-5.235 6.204-8.453 0-1.474-1.124-2.753-3.645-2.753-1.628 0-2.946.583-4.033 1.513-.387.272-.853.427-1.357.427-1.047 0-1.94-.776-1.94-1.94 0-.386.08-.736.273-1.046 1.396-2.016 4.808-3.063 7.562-3.063 4.885 0 7.87 2.6 7.87 6.09 0 5.737-6.863 6.202-6.863 9.615z" fill="#ffffff"/></svg>