<?xml version="1.0" encoding="utf-8"?>
<!-- Generator: Adobe Illustrator 23.0.4, SVG Export Plug-In . SVG Version: 6.00 Build 0)  -->
<svg version="1.1" id="Layer_1" xmlns="http://www.w3.org/2000/svg" xmlns:xlink="http://www.w3.org/1999/xlink" x="0px" y="0px"
	 viewBox="0 0 575.43 243.78" style="enable-background:new 0 0 575.43 243.78;" xml:space="preserve">
<style type="text/css">
	.st0{fill:#FFFFFF;}
</style>
<g>
	<g>
		<g>
			<g>
				<path d="M255.06,49.34c-10.44,0-17.18,7.05-17.18,17.96v6.26c0,10.91,6.74,17.96,17.18,17.96s17.17-7.05,17.17-17.96V67.3
					C272.23,56.39,265.5,49.34,255.06,49.34z M266.38,67.08v6.7c0,7.89-4.23,12.61-11.32,12.61c-7.09,0-11.33-4.71-11.33-12.61v-6.7
					c0-7.89,4.23-12.61,11.33-12.61C262.15,54.47,266.38,59.18,266.38,67.08z"/>
			</g>
			<g>
				<polygon points="324.02,50.12 314.39,90.74 309.05,90.74 299.27,58.22 289.48,90.74 284.14,90.74 274.51,50.12 280.26,50.12 
					287.14,81.21 296.54,50.12 302,50.12 311.39,81.21 318.28,50.12 				"/>
			</g>
			<g>
				<polygon points="359.78,50.12 359.78,90.74 354.55,90.74 334.18,60.32 334.18,90.74 328.44,90.74 328.44,50.12 333.67,50.12 
					354.03,80.53 354.03,50.12 				"/>
			</g>
			<g>
				<polygon points="393.66,85.61 393.66,90.74 366.29,90.74 366.29,50.12 393.6,50.12 393.6,55.25 372.14,55.25 372.14,67.61 
					391.98,67.61 391.98,72.74 372.14,72.74 372.14,85.61 				"/>
			</g>
			<g>
				<path d="M415.49,50.12h-15.44v40.62h15.44c9.82,0,16.18-6.19,16.18-15.79v-9.04C431.67,56.31,425.31,50.12,415.49,50.12z
					 M405.85,55.2h9.02c6.98,0,10.99,3.9,10.99,10.71v9.04c0,6.8-4,10.71-10.99,10.71h-9.02V55.2z"/>
			</g>
		</g>
		<g>
			<g>
				<path d="M473.17,69.54c2.92-1.95,4.56-5.12,4.56-8.94c0-6.36-4.48-10.48-11.43-10.48h-16.9v40.62h17.29
					c8.09,0,13.33-4.46,13.33-11.37C480.02,74.62,477.55,71.12,473.17,69.54z M466.37,85.83H455.1V72.46h11.32
					c4.84,0,7.85,2.54,7.85,6.63C474.27,84.66,469.97,85.83,466.37,85.83z M455.1,55.03h10.26c4.08,0,6.62,2.34,6.62,6.12
					c0,3.18-2.05,6.4-6.62,6.4H455.1V55.03z"/>
			</g>
			<g>
				<polygon points="514.61,50.12 500.14,75.38 500.14,90.74 494.28,90.74 494.28,75.38 479.83,50.12 486.14,50.12 497.22,69.69 
					508.29,50.12 				"/>
			</g>
		</g>
		<g>
			<path d="M269.48,112.2v8.33h-10.86v31.88h-9.88v-31.88h-10.86v-8.33H269.48z"/>
			<path d="M298.52,152.41v-15.74H284.5v15.74h-9.89V112.2h9.89v15.62h14.02V112.2h9.88v40.21H298.52z"/>
			<path d="M314.7,112.2h29.13v8.22h-19.25v7.52h17.52v8.22h-17.52v8.04h19.3v8.22H314.7V112.2z"/>
		</g>
		<g>
			<path d="M370.86,140.29v12.12h-9.89V112.2h17.18c9.48,0,15.63,5.46,15.63,13.9s-6.26,14.19-15.63,14.19H370.86z M377.58,120.41
				h-6.72v11.66h6.72c4.36,0,6.31-2.53,6.31-5.98C383.9,122.65,381.94,120.41,377.58,120.41z"/>
			<path d="M398,112.2h29.13v8.22h-19.25v7.52h17.52v8.22h-17.52v8.04h19.3v8.22H398V112.2z"/>
			<path d="M449.29,153.22c-12.18,0-18.44-7.81-18.44-18.33v-5.17c0-10.51,6.26-18.33,18.44-18.33c12.18,0,18.44,7.81,18.44,18.33
				v5.17C467.73,145.4,461.47,153.22,449.29,153.22z M449.29,119.61c-5.74,0-8.56,3.85-8.56,9.6v6.2c0,5.75,2.82,9.6,8.56,9.6
				c5.74,0,8.56-3.85,8.56-9.6v-6.2C457.85,123.46,455.03,119.61,449.29,119.61z"/>
			<path d="M482.65,140.29v12.12h-9.89V112.2h17.18c9.48,0,15.63,5.46,15.63,13.9s-6.26,14.19-15.63,14.19H482.65z M489.37,120.41
				h-6.72v11.66h6.72c4.36,0,6.31-2.53,6.31-5.98C495.69,122.65,493.73,120.41,489.37,120.41z"/>
			<path d="M519.68,112.2v32h17.75v8.22h-27.64V112.2H519.68z"/>
			<path d="M542,112.2h29.13v8.22h-19.25v7.52h17.52v8.22h-17.52v8.04h19.3v8.22H542V112.2z"/>
		</g>
		<g>
			<path d="M256.33,214.86c-12.18,0-18.44-7.81-18.44-18.33v-5.17c0-10.51,6.26-18.33,18.44-18.33c12.18,0,18.44,7.81,18.44,18.33
				v5.17C274.77,207.04,268.51,214.86,256.33,214.86z M256.33,181.25c-5.74,0-8.56,3.85-8.56,9.6v6.2c0,5.75,2.82,9.6,8.56,9.6
				c5.74,0,8.56-3.85,8.56-9.6v-6.2C264.88,185.1,262.07,181.25,256.33,181.25z"/>
			<path d="M280.37,214.05v-40.21h28.27v8.22h-18.38v8.68h16.66v8.22h-16.66v15.11H280.37z"/>
		</g>
		<g>
			<path d="M361.92,200.21l4.99-26.37h9.71l-9.66,40.21h-9.25l-7.93-28.09l-7.93,28.09h-9.25l-9.65-40.21h9.71l5,26.37l7.52-26.37
				h9.19L361.92,200.21z"/>
			<path d="M400.37,206.58h-14.53l-2.24,7.47h-9.88l14.36-40.21h10.12l14.36,40.21h-9.88L400.37,206.58z M388.25,198.65h9.71
				l-4.83-15.91L388.25,198.65z"/>
		</g>
	</g>
	<g>
		<path d="M194.17,168v44.74c0,0.78-0.52,1.45-1.27,1.65l-96.11,25.75c-0.75,0.2-1.54-0.13-1.93-0.8l-16.94-29.34
			c-0.53-0.92-0.1-2.1,0.9-2.47l113.06-41.15C192.99,165.99,194.17,166.82,194.17,168z"/>
		<path d="M194.17,131.5v14.7c0,0.72-0.45,1.36-1.13,1.61L53.92,198.46c-0.78,0.28-1.65-0.03-2.07-0.75L4.48,115.63
			c-0.69-1.2,0.25-2.69,1.64-2.56l186.49,16.73C193.49,129.87,194.17,130.61,194.17,131.5z"/>
		<path d="M194.17,5.29v105.67c0,1.01-0.86,1.8-1.87,1.71L33.88,98.46c-1.67-0.15-2.15-2.35-0.7-3.19L191.6,3.81
			C192.74,3.15,194.17,3.97,194.17,5.29z"/>
	</g>
</g>
</svg>
