<svg xmlns="http://www.w3.org/2000/svg" viewBox="0 0 16 16"><g fill="#000"><path d="M7.94.32c-.02 0-.05 0-.07.01V.32h.07z"/><path d="M16 13.8v.28c0 .58-.47 1.05-1.05 1.05H1.07c-.58 0-1.05-.47-1.05-1.05v-.28c0-.02 0-.04.01-.06H.02c0-.53.13-.64.49-.83l.1-.05c.02-.01.04-.03.07-.04.63-.31 2.5-1.17 3.35-1.55.72-.33 1.6-1.16 1.98-1.55.2-.2.2-.41.2-.54 0-.06 0-.12-.01-.16-.99-.82-1.65-2.31-1.65-4 0-.59.08-1.15.23-1.66-.01-.01 0-.02 0-.02C5.19 1.88 6.11.78 7.25.43c.05-.01.1-.03.16-.04.15-.03.31-.05.46-.06.02-.01.05-.01.07-.01h.04v.01c.51.01.9.12 1.38.4.04.02.08.04.13.06.58.37 1.07.97 1.42 1.7v.01c.34.72.54 1.59.54 2.52 0 1.78-.73 3.32-1.8 4.12 0 .34.09.48.23.61.39.4 1.24 1.2 1.94 1.52.83.37 2.77 1.21 3.49 1.54.07.03.14.06.21.11h.01v.01h.01c.03.02.05.04.07.06.24.19.39.48.39.81z"/><path d="M9.49.79C9.44.77 9.4.75 9.36.73 8.88.45 8.49.34 7.98.33V.32H8c.53 0 1.04.16 1.49.47z"/></g></svg>