<svg xmlns="http://www.w3.org/2000/svg" x="0" y="0" width="30" height="24" viewBox="0 0 64 64"><g fill="#0099cc"><path d="M40.122 26.11l-9.28 11.193c-.277.333-.695.49-1.127.477-.07-.002-.14.005-.21.004-.084-.003-.16-.025-.244-.025-4.174 0-7.56 3.384-7.56 7.56 0 4.174 3.386 7.56 7.56 7.56 4.004 0 7.247-3.122 7.51-7.06.012-.12.03-.24.037-.36 0-.05.014-.093.014-.14 0-.06-.015-.113-.016-.17.005-1.142-.24-2.274-.748-3.3-.192-.388-.222-.834-.033-1.223l6.342-13.074c.692-1.428-1.23-2.666-2.243-1.443z"/><path d="M32 11.12c-12.372 0-23.58 6.24-30.092 16.517l-.018-.01-.23.413c-.594.967-1.15 1.964-1.66 2.998l.006.003-.004.01 5.205 2.873c.42.232.95.08 1.182-.34l1.047-1.9c.232-.422.08-.95-.342-1.183l-.94-.52c-.446-.247-.594-.83-.304-1.25 5.55-8.08 14.46-13.126 24.366-13.67.496-.026.912.38.912.876v2.29c0 .48.39.87.87.87h.006c.48 0 .87-.39.87-.87v-2.29c0-.497.416-.902.912-.875 9.9.545 18.8 5.585 24.352 13.653.29.42.143 1.005-.305 1.252l-.967.534c-.42.23-.574.76-.342 1.18l1.048 1.9c.232.422.76.575 1.182.342l5.06-2.793.186-.092C57.944 18.752 45.682 11.12 32 11.12z"/></g></svg>