<?xml version="1.0" encoding="utf-8"?>
<!-- Generator: Adobe Illustrator 18.1.1, SVG Export Plug-In . SVG Version: 6.00 Build 0)  -->
<svg version="1.1" id="Layer_1" xmlns="http://www.w3.org/2000/svg" xmlns:xlink="http://www.w3.org/1999/xlink" x="0px" y="0px"
	 viewBox="0 0 41 41" style="enable-background:new 0 0 41 41;" xml:space="preserve">
<style type="text/css">
	.st0{fill:#182124;}
</style>
<path class="st0" d="M13,31h15v2H13V31z"/>
<path class="st0" d="M10,3h21v5h2V3c0-1.41-0.83-3-2.25-3h-20.5C8.84,0,8,1.59,8,3v5h2V3z"/>
<path class="st0" d="M13,26h15v2H13V26z"/>
<path class="st0" d="M39,10H2c-1.42,0-2,1.4-2,2.81v15.38C0,29.6,0.58,31,2,31h6v8c0,1.42,0.84,2,2.25,2h20.5
	c1.42,0,2.25-0.58,2.25-2v-8h6c1.42,0,2-1.4,2-2.81V12.81C41,11.4,40.42,10,39,10z M31,39H10V23h21V39z M35.87,17.94
	c-1.42,0-2.56-1.15-2.56-2.56c0-1.41,1.15-2.56,2.56-2.56s2.56,1.15,2.56,2.56C38.44,16.79,37.29,17.94,35.87,17.94z"/>
</svg>
