<?xml version="1.0" encoding="utf-8"?>
<!-- Generator: Adobe Illustrator 22.0.1, SVG Export Plug-In . SVG Version: 6.00 Build 0)  -->
<svg version="1.1" id="Layer_1" xmlns="http://www.w3.org/2000/svg" xmlns:xlink="http://www.w3.org/1999/xlink" x="0px" y="0px"
	 viewBox="0 0 64 64" style="enable-background:new 0 0 64 64;" xml:space="preserve">
<style type="text/css">
	.st0{fill:#B9BCBD;}
</style>
<g>
	<g>
		<g>
			<g>
				<g>
					<path class="st0" d="M51.7,42.6L51.7,42.6H26.6c-0.8,0-1.5,0.7-1.5,1.5c0,0.9,0.7,1.5,1.5,1.5l0,0h25.2c0.8,0,1.5-0.7,1.5-1.5
						C53.3,43.3,52.5,42.6,51.7,42.6z"/>
					<path class="st0" d="M26.6,37.6L26.6,37.6h25.2c0.8,0,1.5-0.7,1.5-1.5s-0.7-1.5-1.5-1.5l0,0H26.6c-0.8,0-1.5,0.7-1.5,1.5
						C25,36.8,25.7,37.6,26.6,37.6z"/>
					<path class="st0" d="M59.3,10.4c0-0.8-0.7-1.5-1.5-1.5l0,0H34.9C32.2,3.6,26.7,0,20.4,0l0,0C11.4,0,4,7.4,4,16.4
						c0,4.4,1.7,8.5,4.9,11.6c2.7,2.7,6.3,4.4,10.1,4.8v29.7c0,0.8,0.7,1.5,1.5,1.5l0,0H58c0.4,0,0.8-0.2,1.1-0.4s0.4-0.7,0.4-1.1
						L59.3,10.4z M7,16.4c0-3.5,1.4-7,4-9.4s5.9-4,9.4-4l0,0c3.5,0,6.8,1.4,9.3,4s4,5.9,4,9.3s-1.4,7-4,9.4s-5.9,4-9.3,4
						s-7-1.4-9.4-4C8.4,23.3,7,20,7,16.4z M21.8,60.8v-28c3.1-0.3,6.1-1.5,8.6-3.4h21.3c0.8,0,1.5-0.7,1.5-1.5s-0.7-1.5-1.5-1.5l0,0
						H33.5c2.1-2.8,3.3-6.3,3.3-9.9c0-1.5-0.2-3-0.6-4.5h20.1v48.9L21.8,60.8L21.8,60.8z"/>
					<path class="st0" d="M21.3,24.2v-1.1c2.8-0.4,4-2.2,4-4.2c0-2.6-2-3.4-4-4v-4.2c0.7,0.2,1.3,0.4,1.9,0.9
						c0.1,0.1,0.4,0.2,0.6,0.2c0.5,0,1-0.5,1-1c0-0.3-0.2-0.6-0.4-0.8c-0.9-0.6-1.9-1.1-3-1.2V7.7c0-0.7-0.5-1.2-1.2-1.2l0,0
						C19.5,6.5,19,7,19,7.7v1.1c-2.3,0.4-3.8,1.9-3.8,4c0,2.4,1.9,3.2,3.8,3.8v4.7c-1-0.2-1.8-0.6-2.4-1.2c-0.2-0.1-0.4-0.2-0.6-0.2
						c-0.5,0-1,0.5-1,1c0,0.3,0.1,0.6,0.4,0.8c1,0.8,2.2,1.3,3.7,1.5v1.1c0,0.7,0.5,1.2,1.2,1.2l0,0C20.8,25.3,21.3,24.9,21.3,24.2z
						 M23.3,19.2c0,0.8-0.5,1.7-1.9,2v-4C22.4,17.5,23.3,18.1,23.3,19.2z M17.3,12.7c0-0.9,0.7-1.6,1.7-1.9v3.5
						C18,14,17.3,13.5,17.3,12.7z"/>
				</g>
			</g>
		</g>
	</g>
</g>
</svg>
