<svg xmlns="http://www.w3.org/2000/svg" x="0" y="0" width="64" height="64" viewBox="0 0 64 64"><path fill="#FFF" d="M4.743 4.362H59.29V59.61H4.742z"/><g fill="#B00"><path d="M60 0H4C1.79 0 0 1.79 0 4v56c0 2.21 1.79 4 4 4h56c2.21 0 4-1.79 4-4V4c0-2.21-1.79-4-4-4zM37.84 12.148h2.688V22.98c0 .585.484 1.066 1.07 1.066.59 0 1.074-.48 1.074-1.066V12.148h2.576v13.918h-3.272l.055-1.152c-.223.468-.497.82-.823 1.053-.325.236-.7.35-1.124.35-.482 0-.887-.11-1.2-.333-.32-.225-.555-.525-.707-.89h.002c-.15-.375-.245-.76-.28-1.16-.037-.406-.057-1.203-.057-2.4V12.15zm-8.047.147c.58-.458 1.318-.685 2.22-.685.755 0 1.405.148 1.947.44.543.292.964.67 1.256 1.14.297.473.498.955.605 1.45.11.503.165 1.26.165 2.28v3.52c0 1.29-.05 2.242-.152 2.843-.1.606-.313 1.165-.644 1.692-.328.52-.75.91-1.26 1.157-.517.25-1.11.373-1.775.373-.746 0-1.374-.104-1.893-.318-.52-.215-.922-.537-1.207-.964-.29-.43-.493-.952-.614-1.56-.122-.61-.18-1.525-.18-2.745v-3.685c0-1.336.11-2.38.332-3.13.22-.752.62-1.352 1.2-1.808zm3.14 16.48v.09h-.06c.017-.025.04-.058.06-.09zm-11.71-22.11l1.966 6.812 1.937-6.792h3.376l-3.65 9.144-.002 10.673h-3.085l-.005-10.668-3.88-9.17h3.342zM53.75 50.818c0 3.583-3.11 6.517-6.907 6.517H18.437c-3.8 0-6.908-2.932-6.908-6.517V35.873c0-3.584 3.106-6.518 6.907-6.518h28.406c3.798 0 6.907 2.934 6.907 6.518v14.944z"/><path d="M27.95 47.45c0 1.214.075 1.822-.004 2.038-.24.653-1.313 1.345-1.73.07-.07-.223-.01-.894-.01-2.05l-.01-8.465h-2.92l.007 8.33c.002 1.278-.028 2.23.01 2.663.072.763.046 1.655.755 2.163 1.32.95 3.852-.144 4.486-1.504l-.005 1.737 2.356.003V39.042H27.95v8.407z"/><path d="M23.852 36.698v-2.33l-9.387-.015v2.29l2.93.01V52.44h2.937l-.002-15.74M40.27 41.672c0-2.668-1.996-4.263-4.703-2.107l.012-5.2-2.934.004-.013 17.953 2.41-.035.22-1.12c3.083 2.828 5.02.892 5.016-2.498l-.003-.002-.006-6.996zM38.1 49.176c0 .58-.576 1.052-1.286 1.052-.705 0-1.283-.472-1.283-1.052V41.32c0-.58.576-1.053 1.282-1.053.71 0 1.286.473 1.286 1.054v7.856zM32.122 24.194c.714 0 1.298-.645 1.298-1.433v-7.407c0-.786-.584-1.43-1.298-1.43-.715 0-1.302.644-1.302 1.43v7.408c0 .79.586 1.434 1.302 1.434zM47.264 47.754l-.005.297v1.23c0 .656-.544 1.192-1.204 1.192h-.43c-.663 0-1.204-.534-1.204-1.193v-3.23h5.04V44.15c0-1.386-.035-2.773-.15-3.566-.36-2.507-3.88-2.907-5.657-1.622-.558.4-.985.937-1.23 1.66-.25.72-.376 1.705-.376 2.956v4.17c0 6.936 8.422 5.956 7.417-.01l-2.203.014zm-2.79-5.64c0-.72.59-1.306 1.31-1.306h.178c.722 0 1.312.586 1.312 1.305l-.03 1.615H44.46l.014-1.615z"/></g></svg>