<svg xmlns="http://www.w3.org/2000/svg" x="0" y="0" width="64" height="64" viewBox="0 0 64 64"><path fill="#FFF" d="M5.338 9.706h54.148V56.59H5.338z"/><path d="M32.56 28.866v-.09c-.023.03-.045.064-.063.09h.062z" fill="#1D1D1B"/><path d="M60 0H4C1.79 0 0 1.79 0 4v56c0 2.21 1.79 4 4 4h56c2.21 0 4-1.79 4-4V4c0-2.21-1.79-4-4-4zM49.44 32.876c-3.89 15.766-30 22.453-42.012 6.085 4.6 4.39 12.61 4.777 17.693-.472-2.977.437-5.145-2.484-1.484-4.063-3.293.36-5.124-1.39-5.874-2.877.772-.81 1.623-1.183 3.27-1.292-3.602-.852-4.934-2.612-5.342-4.752 1-.24 2.252-.444 2.937-.353-3.16-1.647-4.255-4.13-4.082-5.996 5.64 2.093 9.235 3.774 12.24 5.385 1.07.57 2.265 1.6 3.61 2.904 1.717-4.535 3.837-9.21 7.467-11.528-.06.526-.343 1.016-.716 1.416 1.032-.935 2.37-1.577 3.728-1.765-.158 1.023-1.627 1.595-2.514 1.93.672-.208 4.245-1.802 4.634-.895.46 1.034-2.464 1.51-2.963 1.688-.37.124-.74.262-1.107.408 4.53-.45 8.85 3.284 10.114 7.92.088.334.18.704.26 1.094 1.656.616 4.656-.032 5.623-.626-.7 1.653-2.514 2.872-5.192 3.093 1.29.534 3.724.83 5.403.545-1.06 1.14-2.775 2.176-5.69 2.15z" fill="#4099FF"/></svg>