<svg xmlns="http://www.w3.org/2000/svg" x="0" y="0" width="64" height="64" viewBox="0 0 64 64"><path fill="#FFF" d="M4.188 6.792h56.148v50.62H4.188z"/><path d="M60 0H4C1.79 0 0 1.79 0 4v56c0 2.21 1.79 4 4 4h56c2.21 0 4-1.79 4-4V4c0-2.21-1.79-4-4-4zM19.402 53.574h-9.67V24.677h9.67v28.897zM14.57 20.73h-.065c-3.243 0-5.344-2.218-5.344-4.993 0-2.835 2.165-4.99 5.472-4.99 3.307 0 5.342 2.157 5.407 4.99 0 2.778-2.1 4.993-5.468 4.993h-.003zm39.69 32.844h-9.666v-15.46c0-3.887-1.4-6.538-4.898-6.538-2.675 0-4.262 1.788-4.957 3.513-.26.618-.324 1.48-.324 2.34v16.14h-9.664s.127-26.183 0-28.895h9.667v4.098c1.284-1.97 3.575-4.776 8.71-4.776 6.363 0 11.133 4.128 11.133 13.01v16.568h-.003zm-19.907-24.71l.062-.09v.09h-.062z" fill="#007BB6"/></svg>