<?xml version="1.0" encoding="utf-8"?>
<!-- Generator: Adobe Illustrator 22.0.1, SVG Export Plug-In . SVG Version: 6.00 Build 0)  -->
<svg version="1.1" id="Layer_1" xmlns="http://www.w3.org/2000/svg" xmlns:xlink="http://www.w3.org/1999/xlink" x="0px" y="0px"
	 viewBox="0 0 64 64" style="enable-background:new 0 0 64 64;" xml:space="preserve">
<style type="text/css">
	.st0{fill:#FFFFFF;}
</style>
<path class="st0" d="M36.8,64h24.5c1.1,0,2-0.9,2-2V24.3c0-1.1-0.9-2-2-2H2.7c-1.1,0-2,0.9-2,2V62c0,1.1,0.9,2,2,2H36.8 M54.9,59.3
	H4.7V38.6l0,0V26.3h54.6v12.3c0,0,0,0,0,0v20.6L54.9,59.3L54.9,59.3z"/>
<g>
	<path class="st0" d="M9.5,31.1H19v9.5H9.5L9.5,31.1z M9.5,45.3H19v9.5H9.5L9.5,45.3z M21.4,31.1h9.5v9.5h-9.5L21.4,31.1z
		 M21.4,45.3h9.5v9.5h-9.5L21.4,45.3z M33.2,31.1h9.5v9.5h-9.5V31.1z M33.2,45.3h9.5v9.5h-9.5V45.3z M45,31.1h9.5v9.5H45V31.1z
		 M45,45.3h9.5v9.5H45V45.3z"/>
</g>
<path class="st0" d="M37,8l-5-8l-5,8l-9.2-2.1L20,15l-8,5h11.9c0.3-4.1,3.8-7.4,8-7.4c4.2,0,7.7,3.2,8,7.4H52l-8-5l2.1-9.2L37,8
	L37,8z"/>
</svg>
