<svg xmlns="http://www.w3.org/2000/svg" x="0" y="0" width="36" height="36" viewBox="0 0 64 64"><path d="M36.78 64h24.533c1.092 0 1.985-.893 1.985-1.985V24.35c0-1.092-.893-1.985-1.985-1.985H2.693c-1.092 0-1.985.893-1.985 1.985v37.665C.708 63.107 1.6 64 2.693 64H36.78m18.096-4.713H4.66V38.643l.035.007V26.335H59.31V38.65c.012-.004.024-.005.035-.008v20.644h-4.47z" fill="#efbd46"/><g fill="#efbd46"><path d="M9.532 31.068h9.46v9.46H9.53zM9.532 45.258h9.46v9.46H9.53zM21.357 31.068h9.46v9.46h-9.46zM21.357 45.258h9.46v9.46h-9.46zM33.182 31.068h9.46v9.46h-9.46zM33.182 45.258h9.46v9.46h-9.46zM45.008 31.068h9.46v9.46h-9.46zM45.008 45.258h9.46v9.46h-9.46z"/></g><path d="M36.99 7.972L32.003 0 27.02 7.972l-9.162-2.114 2.12 9.16L12.004 20h11.888c.337-4.127 3.785-7.37 8-7.37 4.21 0 7.658 3.243 7.995 7.37H52l-7.966-4.982 2.115-9.16-9.16 2.114z" fill="#efbd46"/></svg>