<svg xmlns="http://www.w3.org/2000/svg" viewBox="0 0 64 64"><path d="M55.044 59.393H52.68c3.3-9.014.442-19.213-7.225-25.103-1.19-.914-2.473-1.648-3.785-2.29 1.312-.643 2.6-1.376 3.785-2.29 7.677-5.897 10.534-16.112 7.214-25.138H55.02c1.257 0 2.286-1.03 2.286-2.286C57.308 1.03 56.28 0 55.022 0H8.956C7.7 0 6.67 1.03 6.67 2.286c0 1.257 1.03 2.286 2.287 2.286H11.313C7.99 13.594 10.847 23.81 18.53 29.71c1.192.914 2.474 1.647 3.787 2.29-1.312.642-2.595 1.376-3.786 2.29C10.86 40.18 8 50.38 11.3 59.393H8.98c-1.257 0-2.286 1.03-2.286 2.286s1.028 2.285 2.286 2.285h.208V64h45.66v-.036h.197c1.257 0 2.286-1.03 2.286-2.286 0-1.257-1.03-2.285-2.286-2.285zm-39.227-.845c-3.05-7.317-.792-15.804 5.5-20.633 1.853-1.43 3.942-2.38 6.102-2.97V29.05c-2.16-.587-4.245-1.542-6.104-2.966-6.29-4.83-8.547-13.316-5.5-20.633l.366-.878h31.62l.367.88c3.044 7.316.786 15.803-5.5 20.632-1.86 1.424-3.94 2.38-6.11 2.965v5.9c2.17.586 4.25 1.537 6.11 2.965 6.286 4.83 8.543 13.316 5.5 20.633l-.352.844h-4.66c.763-3.825-.418-7.92-3.47-10.705-1.58-1.43-3.456-2.327-5.412-2.722V27.24c2.707-.404 5.33-1.496 7.573-3.336 1.9-1.554 3.292-3.5 4.258-5.616H17.882c.96 2.116 2.357 4.062 4.25 5.616 2.24 1.84 4.866 2.932 7.57 3.335v18.726c-1.953.397-3.83 1.293-5.4 2.722-3.063 2.787-4.235 6.88-3.47 10.705h-4.666l-.35-.845z" fill="#c1e62e"/></svg>