<svg xmlns="http://www.w3.org/2000/svg" height="16px" width="28px" preserveAspectRatio="none" viewBox="0 0 64 64"><path d="M63.49 10.202l-7.2 7.202c-1.96 1.958-5.132 1.958-7.09 0L46.597 14.8c-1.958-1.957-1.958-5.13 0-7.09l7.202-7.2c-4.685-1.302-9.916-.11-13.6 3.575-3.686 3.682-4.876 8.913-3.576 13.6L17.685 36.623c-4.685-1.302-9.916-.11-13.6 3.574C.398 43.882-.792 49.11.508 53.797l7.2-7.202c1.96-1.957 5.132-1.957 7.09 0l2.604 2.605c1.958 1.958 1.958 5.132 0 7.09l-7.2 7.2c4.683 1.302 9.915.11 13.6-3.573 3.68-3.685 4.874-8.917 3.574-13.602l18.938-18.937c4.684 1.3 9.916.108 13.6-3.576 3.682-3.68 4.876-8.913 3.575-13.6zM41.363 25.657L26.785 40.234c-.778.778-2.05.778-2.828 0s-.778-2.05 0-2.828L38.534 22.83c.778-.78 2.05-.78 2.828 0s.778 2.05 0 2.827z" fill="#182124"/></svg>