<?xml version="1.0" encoding="utf-8"?>
<!-- Generator: Adobe Illustrator 16.0.0, SVG Export Plug-In . SVG Version: 6.00 Build 0)  -->
<!DOCTYPE svg PUBLIC "-//W3C//DTD SVG 1.1//EN" "http://www.w3.org/Graphics/SVG/1.1/DTD/svg11.dtd">
<svg version="1.1" id="Layer_1" xmlns="http://www.w3.org/2000/svg" xmlns:xlink="http://www.w3.org/1999/xlink" x="0px" y="0px"
	 width="64px" height="64px" viewBox="0 0 64 64" enable-background="new 0 0 64 64" xml:space="preserve">
<g>
	<path fill="#52A1CC" d="M28.07,64h7.864c2.172,0,4.06-1.738,4.06-4H23.976C23.976,62.262,25.898,64,28.07,64z M42.085,53.971H21.9
		c-1.057,0.155-1.922,0.941-1.922,1.997s0.864,2,1.92,2.063h20.187c1.056-0.063,1.92-1.006,1.92-2.063s-0.862-1.843-1.92-2V53.971z
		 M40,52.005c1.102,0,2.003-0.899,2.003-2.002c0-1.101-0.899-2.002-2.002-2.002H23.984c-1.1,0-2.002,0.901-2.002,2.003
		c0,1.1,0.902,2.002,2.003,2.002L40,52.005L40,52.005z"/>
</g>
<path fill="#52A1CC" d="M52.02,20.015C52.02,8.96,43.059,0,32,0C20.94,0,11.976,8.96,11.976,20.015
	c0,10.882,6.563,12.15,7.79,24.018h0.005c0,1.105,0.895,2.002,2.002,2.002h20.452c1.107,0,2.002-0.896,2.002-2.002
	c1.233-11.87,7.795-13.135,7.795-24.018H52.02z M31.75,37.178c-1.473,0-2.753-1.279-2.753-2.753c0-1.512,1.28-2.753,2.753-2.753
	c1.512,0,2.753,1.24,2.753,2.753C34.503,35.898,33.264,37.178,31.75,37.178L31.75,37.178z M32.99,26.205
	c0,0.543,0.273,0.853,0.273,1.318c0,0.853-0.658,1.784-1.823,1.784c-1.512,0-2.52-1.745-2.52-3.49c0-4.73,6.204-5.235,6.204-8.453
	c0-1.474-1.124-2.753-3.645-2.753c-1.628,0-2.946,0.583-4.033,1.513c-0.387,0.272-0.853,0.427-1.357,0.427
	c-1.047,0-1.94-0.776-1.94-1.94c0-0.386,0.08-0.736,0.273-1.046c1.396-2.016,4.808-3.063,7.562-3.063c4.885,0,7.871,2.6,7.871,6.09
	c0,5.737-6.863,6.202-6.863,9.615L32.99,26.205z"/>
</svg>
