<svg xmlns="http://www.w3.org/2000/svg" x="0" y="0" width="64" height="64" viewBox="0 0 64 64"><path d="M16.15 38.106c-.102-.074-.198-.172-.27-.276-1.187-1.746-.778-3.52.34-4.533.328-.296.447-.745.284-1.155-.763-1.91-1.177-3.945-1.177-6.056 0-1.054.106-2.088.306-3.098.137-.69-.453-1.302-1.147-1.188C6.202 23.167 0 28.677 0 35.283c0 4.276 2.608 8.087 6.687 10.62.412.257.598.76.426 1.213L4.816 53.17c-.34.9.66 1.715 1.472 1.198l8.365-5.33c.195-.125.426-.174.656-.144 1.03.135 2.087.21 3.17.21 4.4 0 8.437-1.157 11.61-3.08.703-.427.58-1.487-.193-1.774-3.474-1.29-6.517-3.19-8.91-5.524-.317-.31-.78-.37-1.176-.17-1.016.512-2.33.508-3.66-.45zm-4.662.037c-3.36 2.37-7.052-1.318-4.687-4.686.073-.103.17-.2.274-.272 3.365-2.352 7.04 1.332 4.684 4.688-.072.102-.168.198-.27.27zM64 24.693c0-9.212-9.986-16.68-22.305-16.68-12.316 0-22.302 7.468-22.302 16.68s9.986 16.683 22.302 16.683c.977 0 1.938-.048 2.88-.14.29-.027.574.07.784.27l7.93 7.595c.664.638 1.763.114 1.687-.804l-.756-9.115c-.032-.396.18-.77.53-.96C60.355 35.19 64 30.26 64 24.695zM33.5 28.13c-4.078 2.906-8.574-1.585-5.672-5.662.07-.097.16-.19.257-.26 4.078-2.938 8.604 1.573 5.673 5.663-.07.096-.16.188-.26.258zm10.998.004c-4.083 2.9-8.574-1.595-5.666-5.67.07-.1.16-.19.26-.26 4.087-2.928 8.592 1.584 5.667 5.67-.07.098-.164.19-.262.26zm11 .002c-4.088 2.894-8.564-1.597-5.666-5.67.07-.1.16-.19.26-.26 4.082-2.933 8.602 1.582 5.667 5.67-.072.098-.165.19-.263.26z" fill="#ffffff"/></svg>